<svg xmlns="http://www.w3.org/2000/svg" width="128" height="128" viewBox="0 0 128 128">
  <title>HYDROGEN</title>
  <g>
    <path d="M107.429,50.7A28.483,28.483,0,1,1,78.945,22.217,28.486,28.486,0,0,1,107.429,50.7Z" fill="#80F9E7"/>
    <path d="M50.46,50.7a28.271,28.271,0,0,0,3.581,13.832,18.876,18.876,0,1,1,0-27.654A28.229,28.229,0,0,0,50.46,50.7Z" fill="#44C0C6"/>
    <path d="M97.816,89.322A18.871,18.871,0,1,1,65.673,75.914a28.476,28.476,0,0,0,26.544,0A18.8,18.8,0,0,1,97.816,89.322Z" fill="#44C0C6"/>
    <path d="M67.106,50.919a11.505,11.505,0,0,1,23,0,11.5,11.5,0,0,1-23,0Zm18.244,0a6.732,6.732,0,1,0-6.743,7A6.964,6.964,0,0,0,85.35,50.919Z" fill="#fff"/>
    <path d="M84.093,86.148V96.977H81.4V92.658H76.969v4.319h-2.7V86.148h2.7v4.1H81.4v-4.1Z" fill="#fff"/>
    <path d="M44.839,45.286V56.114H42.144V51.8H37.715v4.319h-2.7V45.286h2.7v4.1h4.429v-4.1Z" fill="#fff"/>
  </g>
</svg>
